<svg width="256" height="256" viewBox="0 0 256 256" fill="none" xmlns="http://www.w3.org/2000/svg">
<path d="M141.17 202.83C140.798 202.459 140.503 202.017 140.302 201.532C140.1 201.046 139.997 200.526 139.997 200C139.997 199.474 140.1 198.954 140.302 198.468C140.503 197.983 140.798 197.541 141.17 197.17L206.34 132H40C38.9391 132 37.9217 131.579 37.1716 130.828C36.4214 130.078 36 129.061 36 128C36 126.939 36.4214 125.922 37.1716 125.172C37.9217 124.421 38.9391 124 40 124H206.34L141.17 58.83C140.798 58.4584 140.504 58.0172 140.302 57.5316C140.101 57.046 139.998 56.5256 139.998 56C139.998 55.4744 140.101 54.954 140.302 54.4684C140.504 53.9828 140.798 53.5416 141.17 53.17C141.542 52.7984 141.983 52.5036 142.468 52.3024C142.954 52.1013 143.474 51.9978 144 51.9978C144.526 51.9978 145.046 52.1013 145.532 52.3024C146.017 52.5036 146.458 52.7984 146.83 53.17L218.83 125.17C219.202 125.541 219.497 125.983 219.698 126.468C219.9 126.954 220.003 127.474 220.003 128C220.003 128.526 219.9 129.046 219.698 129.532C219.497 130.017 219.202 130.459 218.83 130.83L146.83 202.83C146.459 203.202 146.017 203.497 145.532 203.698C145.046 203.9 144.526 204.003 144 204.003C143.474 204.003 142.954 203.9 142.468 203.698C141.983 203.497 141.541 203.202 141.17 202.83Z" />
</svg>
