<svg width="256" height="256" viewBox="0 0 256 256" fill="none" xmlns="http://www.w3.org/2000/svg">
<path d="M128 26C107.826 26 88.1056 31.9822 71.3318 43.1901C54.558 54.398 41.4844 70.3282 33.7643 88.9663C26.0441 107.604 24.0242 128.113 27.9599 147.899C31.8956 167.685 41.6101 185.86 55.8751 200.125C70.14 214.39 88.3147 224.104 108.101 228.04C127.887 231.976 148.396 229.956 167.034 222.236C185.672 214.516 201.602 201.442 212.81 184.668C224.018 167.894 230 148.174 230 128C229.968 100.958 219.212 75.032 200.09 55.9102C180.968 36.7884 155.042 26.0318 128 26ZM128 218C110.2 218 92.7991 212.722 77.9987 202.832C63.1982 192.943 51.6627 178.887 44.8508 162.442C38.0389 145.996 36.2566 127.9 39.7293 110.442C43.202 92.9836 51.7736 76.9471 64.3604 64.3604C76.9471 51.7737 92.9836 43.202 110.442 39.7293C127.9 36.2567 145.996 38.039 162.441 44.8508C178.887 51.6627 192.943 63.1983 202.832 77.9987C212.722 92.7991 218 110.2 218 128C217.974 151.861 208.483 174.738 191.61 191.61C174.738 208.483 151.861 217.974 128 218ZM190 128C190 129.591 189.368 131.117 188.243 132.243C187.117 133.368 185.591 134 184 134H128C126.409 134 124.883 133.368 123.757 132.243C122.632 131.117 122 129.591 122 128V72C122 70.4087 122.632 68.8826 123.757 67.7574C124.883 66.6321 126.409 66 128 66C129.591 66 131.117 66.6321 132.243 67.7574C133.368 68.8826 134 70.4087 134 72V122H184C185.591 122 187.117 122.632 188.243 123.757C189.368 124.883 190 126.409 190 128Z" />
</svg>
