<svg width="173" height="173" viewBox="0 0 173 173" fill="none" xmlns="http://www.w3.org/2000/svg">
<path d="M146.25 14H172.75V173H0.5V14H27V0.75H40.25V14H133V0.75H146.25V14ZM159.5 27.25H146.25V40.5H159.5V27.25ZM133 27.25H40.25V40.5H133V27.25ZM27 27.25H13.75V40.5H27V27.25ZM13.75 159.75H159.5V53.75H13.75V159.75ZM40.25 106.75V93.5H53.5V106.75H40.25ZM66.75 106.75V93.5H80V106.75H66.75ZM93.25 106.75V93.5H106.5V106.75H93.25ZM119.75 106.75V93.5H133V106.75H119.75ZM40.25 133.25V120H53.5V133.25H40.25ZM66.75 133.25V120H80V133.25H66.75ZM93.25 133.25V120H106.5V133.25H93.25ZM66.75 80.25V67H80V80.25H66.75ZM93.25 80.25V67H106.5V80.25H93.25ZM119.75 80.25V67H133V80.25H119.75Z" />
</svg>
