<svg width="199" height="212" viewBox="0 0 199 212" fill="none" xmlns="http://www.w3.org/2000/svg">
<path d="M172.25 53H198.75V212H26.5V53H53V39.75H66.25V53H159V39.75H172.25V53ZM185.5 66.25H172.25V79.5H185.5V66.25ZM159 66.25H66.25V79.5H159V66.25ZM53 66.25H39.75V79.5H53V66.25ZM39.75 198.75H185.5V92.75H39.75V198.75ZM26.5 39.75V26.5H13.25V172.25H0V13.25H26.5V0H39.75V13.25H132.5V0H145.75V13.25H172.25V26.5H145.75V39.75H132.5V26.5H39.75V39.75H26.5ZM66.25 145.75V132.5H79.5V145.75H66.25ZM92.75 145.75V132.5H106V145.75H92.75ZM119.25 145.75V132.5H132.5V145.75H119.25ZM145.75 145.75V132.5H159V145.75H145.75ZM66.25 172.25V159H79.5V172.25H66.25ZM92.75 172.25V159H106V172.25H92.75ZM119.25 172.25V159H132.5V172.25H119.25ZM92.75 119.25V106H106V119.25H92.75ZM119.25 119.25V106H132.5V119.25H119.25ZM145.75 119.25V106H159V119.25H145.75Z" />
</svg>
